PathFileType	4	(X/Y/Z)	s03c0401.trc
DataRate	CameraRate	NumFrames	NumMarkers	Units	OrigDataRate	OrigDataStartFrame	OrigNumFrames
200	200	5	52	mm	200	500	2000
Frame#	Time	racr			lacr			c7			jug			rlel			rdr			llel			ldr			s2			lic			ric			lasi			rasi			rpsi			lpsi			rgt			lgt			rth1			rth2			rth3			rth4			rlfc			rmfc			rsh1			rsh2			rsh3			rsh4			rlmal			rmmal			rcal			rtoe			rmt5			rmt1			lth1			lth2			lth4			lth3			llfc			lmfc			lsh1			lsh2			lsh3			lsh4			llmal			lmmal			lcal			ltoe			lmt1			lmt5			SBIKE			LBIKE			RBIKE			
		X1	Y1	Z1	X2	Y2	Z2	X3	Y3	Z3	X4	Y4	Z4	X5	Y5	Z5	X6	Y6	Z6	X7	Y7	Z7	X8	Y8	Z8	X9	Y9	Z9	X10	Y10	Z10	X11	Y11	Z11	X12	Y12	Z12	X13	Y13	Z13	X14	Y14	Z14	X15	Y15	Z15	X16	Y16	Z16	X17	Y17	Z17	X18	Y18	Z18	X19	Y19	Z19	X20	Y20	Z20	X21	Y21	Z21	X22	Y22	Z22	X23	Y23	Z23	X24	Y24	Z24	X25	Y25	Z25	X26	Y26	Z26	X27	Y27	Z27	X28	Y28	Z28	X29	Y29	Z29	X30	Y30	Z30	X31	Y31	Z31	X32	Y32	Z32	X33	Y33	Z33	X34	Y34	Z34	X35	Y35	Z35	X36	Y36	Z36	X37	Y37	Z37	X38	Y38	Z38	X39	Y39	Z39	X40	Y40	Z40	X41	Y41	Z41	X42	Y42	Z42	X43	Y43	Z43	X44	Y44	Z44	X45	Y45	Z45	X46	Y46	Z46	X47	Y47	Z47	X48	Y48	Z48	X49	Y49	Z49	X50	Y50	Z50	X51	Y51	Z51	X52	Y52	Z52	
500	2.5000	786.372020	1479.678678	-58.162940	769.606946	1522.806333	-392.392301	701.605585	1585.714167	-218.960689	746.827722	1418.315255	-230.206276	651.262927	1234.484281	70.320814	750.312214	986.111110	-12.378617	668.376584	1256.598223	-491.264085	743.000305	971.073133	-443.898038	196.695533	1267.655797	-226.781994	367.425276	1303.252457	-410.851246	376.192862	1266.885738	-50.704967	386.802612	1227.942615	-377.543426	403.223338	1199.469826	-102.968948	231.729905	1308.138619	-177.083366	229.199959	1318.249862	-259.371653	297.013227	1153.525842	-48.589162	313.368118	1200.594725	-441.249710	321.241746	1001.449793	-34.268907	364.903742	924.065800	-33.683644	368.131043	839.059518	-46.470952	400.092674	934.235161	-38.182602	387.333087	714.705173	-76.971367	401.178708	697.333499	-186.674996	325.312904	559.175069	-46.941494	317.442488	470.565025	-57.637866	265.869845	398.685133	-58.757172	346.668771	462.206088	-82.255631	208.641590	280.092703	-78.049777	231.630110	285.078245	-159.712655	136.771664	264.708570	-107.444891	419.640227	131.562653	-117.936252	306.184341	166.484949	-43.795737	334.033804	173.016551	-156.741707	408.988912	1088.813270	-475.731949	481.432410	1042.489553	-486.878194	508.437683	1064.805675	-476.017216	521.103653	963.013636	-496.099957	601.008588	857.184964	-491.179858	607.500391	837.948944	-362.546584	449.084323	774.815204	-497.823503	390.913105	718.277826	-469.791149	303.622088	696.469978	-456.032481	409.291639	693.918640	-446.127827	192.349219	640.719262	-427.025467	232.036834	634.825848	-338.219787	117.135392	656.392390	-374.436567	323.614678	428.068390	-359.279243	255.048109	494.800253	-320.357743	226.040236	493.989059	-434.629836	-216.609507	944.831390	-233.565972	-11.890293	80.827940	-435.504956	-11.898441	80.758748	-34.937401	
501	2.5050	788.089320	1480.867669	-60.942277	770.580862	1523.334084	-395.252477	703.159490	1586.930843	-221.826211	747.935638	1419.404336	-232.595676	653.606102	1235.548231	67.850622	750.818734	985.526944	-12.386611	668.775538	1256.690262	-493.003714	742.936797	971.142305	-443.431608	197.338149	1270.341627	-226.064467	367.106398	1305.542848	-410.969056	378.081170	1268.835490	-51.046703	386.871327	1230.391387	-377.471502	404.100749	1201.476860	-103.604721	232.860343	1310.292646	-176.490621	229.888999	1321.044449	-258.522539	296.945634	1155.004531	-48.797503	313.674812	1203.712044	-441.281497	319.318958	1003.101970	-34.581470	362.035715	925.237139	-34.112545	364.556154	840.125800	-46.794339	397.431838	934.993569	-38.747740	381.863585	715.775653	-77.685857	395.418524	698.146714	-187.331792	320.547005	560.126698	-47.326762	313.354468	471.405161	-57.689236	262.291358	399.186531	-58.670950	342.652299	463.125522	-82.288603	206.186695	280.206058	-77.828557	229.648628	285.072298	-159.165444	134.543745	265.599307	-107.272411	415.798627	129.043522	-117.873663	302.717747	165.331780	-43.671677	330.606490	171.714276	-156.648310	409.450955	1091.519058	-475.320961	481.873403	1045.065598	-486.249421	508.875056	1067.410448	-475.333118	521.448632	965.537572	-495.154320	601.815843	859.953225	-489.778695	608.593993	840.920374	-360.982037	450.577459	776.600000	-497.019390	392.560498	719.818364	-469.052681	305.320899	697.625603	-455.719711	410.925952	695.820098	-445.295457	194.109655	641.371384	-427.088671	233.670957	635.922466	-338.153668	118.350400	656.260694	-374.674325	328.046463	430.796356	-359.229634	259.429938	496.356228	-320.572296	229.611752	495.403552	-434.774339	-216.675111	944.807034	-233.616066	-11.883959	80.801567	-435.510889	-11.912707	80.766391	-34.963461	
502	2.5100	789.695627	1482.089471	-63.923920	771.540318	1523.810998	-398.202885	704.695671	1588.054639	-224.888465	749.044106	1420.508909	-235.003174	656.009840	1236.558175	65.290749	751.340799	984.940546	-12.341463	669.205016	1256.707630	-494.788037	742.856112	971.123287	-442.989233	198.044250	1273.168681	-225.447751	366.803791	1308.004555	-411.046839	380.016344	1270.963669	-51.427051	386.895363	1233.104174	-377.369610	405.101004	1203.841975	-103.935662	233.916489	1312.720306	-175.771792	230.461532	1323.831737	-257.603884	296.897041	1156.661796	-49.024163	314.255267	1207.018347	-441.112023	317.389332	1004.921156	-34.991017	359.003640	926.512523	-34.535814	360.718500	841.356328	-47.200311	394.683553	935.968560	-39.267462	376.383087	717.091171	-78.468863	389.612944	699.186312	-188.136943	315.895522	561.283692	-47.697802	309.429798	472.573462	-57.755927	258.808762	399.892154	-58.613695	338.798985	464.395778	-82.310424	203.925023	280.396815	-77.614458	227.782794	285.232638	-158.618674	132.435156	266.926964	-107.099898	411.851824	126.803753	-117.781430	299.269479	164.270933	-43.588168	327.108976	170.460397	-156.623870	409.924842	1094.306688	-474.935518	482.267256	1047.716346	-485.538311	509.399573	1070.007147	-474.568515	521.746260	968.027366	-494.120780	602.595004	862.523079	-488.167783	609.493465	843.850790	-359.259781	451.991589	778.426067	-496.064632	394.134495	721.452722	-468.271373	307.042941	698.694737	-455.241922	412.491187	697.591067	-444.321900	195.830948	641.905178	-427.165892	235.104843	637.136118	-338.033719	119.620480	655.827008	-374.984977	332.429964	433.637335	-359.365413	262.280307	498.324258	-320.682368	233.112672	496.686600	-434.865835	-216.710357	944.786528	-233.640637	-11.886053	80.809363	-435.542081	-11.907387	80.758050	-34.959568	
503	2.5150	791.363789	1483.350913	-66.876832	772.688643	1524.254961	-401.202035	706.423521	1589.262798	-227.882644	750.188622	1421.752995	-237.445559	658.554232	1237.461368	62.341609	751.907935	984.415718	-12.331320	669.881053	1256.605686	-496.032457	742.793361	971.169855	-442.575448	198.747213	1276.250856	-224.815416	366.462712	1310.624368	-411.154387	381.956140	1273.453327	-51.770332	386.932624	1235.709490	-377.175021	406.202363	1206.260774	-104.435877	235.007566	1315.411164	-174.968309	231.295578	1326.917603	-256.950931	296.809724	1158.493014	-49.283614	314.760180	1210.490691	-440.955610	315.556322	1006.935386	-35.279731	356.299491	928.044388	-34.965928	356.974980	842.853258	-47.575512	392.247829	937.133724	-39.913059	370.778579	718.682757	-79.309201	383.848437	700.462149	-188.987527	311.272438	562.710641	-48.044613	305.316320	473.708355	-58.007840	255.564835	400.846441	-58.555402	334.684221	465.640089	-82.531575	201.774650	281.030696	-77.245775	226.135811	285.590611	-158.076006	130.610864	268.597704	-106.889424	407.914097	124.396338	-117.650657	295.874293	163.345166	-43.509635	323.804367	169.401299	-156.505998	410.412484	1097.157842	-474.560312	482.759283	1050.340607	-484.843430	509.920109	1072.623649	-473.750379	522.022337	970.591382	-493.120004	603.382073	865.214268	-486.441433	610.122660	846.672529	-357.509141	453.356212	780.236019	-494.994027	395.667680	722.890699	-467.477816	308.604815	699.771581	-454.869081	413.970134	699.361096	-443.285283	197.550754	642.406145	-427.167189	236.474937	638.252234	-337.897576	120.654512	655.464815	-375.160345	336.860521	436.227966	-359.374506	265.570674	500.069654	-320.615616	236.607307	497.934133	-435.063992	-216.732578	944.809991	-233.711657	-11.888406	80.824069	-435.523875	-11.924714	80.783353	-34.968354	
504	2.5200	792.969512	1484.511941	-69.856115	773.838848	1524.709943	-404.279610	708.171182	1590.543612	-230.956659	751.430474	1422.879752	-239.956858	660.962378	1238.372470	59.587620	752.463537	983.881188	-12.320950	670.442416	1256.711250	-498.023782	742.771179	971.223221	-442.199829	199.517757	1279.420139	-224.189755	366.119030	1313.363780	-411.199787	383.876600	1275.871113	-52.109837	386.917788	1238.628644	-377.030666	407.288350	1208.708275	-104.917480	236.206845	1318.296645	-173.612334	231.980396	1330.081491	-256.113333	296.706186	1160.519395	-49.513672	315.473526	1214.144148	-440.788005	313.782899	1009.067352	-35.593407	353.655687	929.721742	-35.348791	353.300096	844.543709	-47.920467	389.675769	938.426833	-40.523461	365.741114	720.400455	-79.998628	378.052609	702.024051	-189.888603	306.838534	564.345634	-48.336725	301.803813	475.585215	-57.743096	252.414966	402.010390	-58.388556	331.460835	467.654564	-82.087259	199.949415	281.771360	-76.980462	224.655996	286.190080	-157.519366	129.070953	270.554319	-106.747148	403.950109	122.090131	-117.564946	292.474507	162.488249	-43.428633	320.402040	168.353922	-156.524370	411.015373	1100.092394	-474.214948	483.239573	1053.026032	-484.098025	510.558435	1075.258404	-472.824264	522.312202	973.135088	-492.001238	604.164113	867.852647	-484.584485	610.689930	849.504555	-355.455863	454.652901	782.017036	-493.775064	397.138234	724.369575	-466.509658	310.099233	700.824514	-454.378293	415.368493	701.034338	-442.221876	199.166186	642.757883	-427.201299	237.435970	639.041673	-337.838115	121.715657	654.797334	-375.408848	341.179811	439.033435	-359.496221	269.217148	501.638719	-320.428759	240.161432	499.104275	-435.191476	-216.777320	944.813181	-233.767453	-11.899379	80.820541	-435.522329	-11.929231	80.794964	-34.974667	
